<svg width="51" height="48" viewBox="0 0 51 48" fill="none" xmlns="http://www.w3.org/2000/svg">
<path d="M19.2326 0H0.513672V48H6.85773V5.96684H18.8491C24.4069 5.96684 28.3156 7.19409 31.4509 10.4316L35.66 5.75271C31.4669 1.69705 26.2191 0 19.2326 0Z" fill="#CE0988"/>
<path d="M36.8713 23.9984C36.8713 25.8968 36.6476 27.6833 36.2289 29.342L40.7992 35.3217C42.3621 32.0298 43.2186 28.2139 43.2186 23.9984C43.2186 18.9552 42.6369 15.12 40.4381 11.4383L35.9445 16.5518C36.9672 18.9232 36.8745 21.0038 36.8745 23.9984H36.8713Z" fill="#CE0988"/>
<path d="M18.8523 42.0332H17.9382V48H19.2326C26.7432 48 32.985 45.3026 37.2197 40.6717L33.2119 35.6445C30.0862 39.6713 25.1101 42.0364 18.8523 42.0364V42.0332Z" fill="#CE0988"/>
<path d="M39.7957 10.7991L49.2814 0H42.0488L36.3024 6.38871C37.648 7.68946 38.8177 9.16599 39.7957 10.7991Z" fill="#CE0988"/>
<path d="M17.935 35.5869L26.0561 26.6734L32.5695 35.0021C33.9598 33.2123 34.9825 31.0902 35.5865 28.7028L30.3068 21.5982L35.3021 15.9126C34.5095 14.0718 33.4292 12.445 32.0933 11.0676L17.935 26.8108V9.949H11.591V42.0332H17.935V35.5869Z" fill="#CE0988"/>
<path d="M50.4863 48L41.4352 35.964C40.4924 37.9487 39.2907 39.7417 37.8557 41.3109L43.0588 48H50.4863Z" fill="#CE0988"/>
<path d="M36.2289 29.342C35.6249 31.7294 34.6022 33.8515 33.2119 35.6413L37.2197 40.6685C38.6547 39.0993 39.8564 37.3063 40.7992 35.3217L36.2289 29.342Z" fill="#CE0988"/>
<path d="M39.7957 10.7991C38.8177 9.16599 37.648 7.68946 36.3024 6.38871L32.0933 11.0676C33.4292 12.445 34.5095 14.0718 35.3021 15.9126L39.7957 10.7991Z" fill="#CE0988"/>
<path d="M17.935 42.0332H11.591V48H17.935V42.0332Z" fill="#CE0988"/>
</svg>
